<?xml version="1.0" encoding="UTF-8" standalone="no"?>
<svg
   xmlns:dc="http://purl.org/dc/elements/1.1/"
   xmlns:cc="http://creativecommons.org/ns#"
   xmlns:rdf="http://www.w3.org/1999/02/22-rdf-syntax-ns#"
   xmlns:svg="http://www.w3.org/2000/svg"
   xmlns="http://www.w3.org/2000/svg"
   xmlns:sodipodi="http://sodipodi.sourceforge.net/DTD/sodipodi-0.dtd"
   xmlns:inkscape="http://www.inkscape.org/namespaces/inkscape"
   width="568px"
   height="475px"
   viewBox="0 0 568 475"
   version="1.1"
   id="svg2"
   inkscape:version="0.92.1 r15371"
   sodipodi:docname="Websiteicon.svg">
  <metadata
     id="metadata31">
    <rdf:RDF>
      <cc:Work
         rdf:about="">
        <dc:format>image/svg+xml</dc:format>
        <dc:type
           rdf:resource="http://purl.org/dc/dcmitype/StillImage" />
        <dc:title>Logo</dc:title>
      </cc:Work>
    </rdf:RDF>
  </metadata>
  <sodipodi:namedview
     pagecolor="#ffffff"
     bordercolor="#666666"
     borderopacity="1"
     objecttolerance="10"
     gridtolerance="10"
     guidetolerance="10"
     inkscape:pageopacity="0"
     inkscape:pageshadow="2"
     inkscape:window-width="1920"
     inkscape:window-height="1017"
     id="namedview29"
     showgrid="true"
     inkscape:zoom="1.2995878"
     inkscape:cx="250.98618"
     inkscape:cy="221.64111"
     inkscape:window-x="2252"
     inkscape:window-y="-8"
     inkscape:window-maximized="1"
     inkscape:current-layer="Logo"
     showguides="false" />
  <!-- Generator: Sketch 42 (36781) - http://www.bohemiancoding.com/sketch -->
  <title
     id="title4">Logo</title>
  <desc
     id="desc6">Created with Sketch.</desc>
  <defs
     id="defs8" />
  <g
     id="Page-4"
     style="fill:none;fill-rule:evenodd;stroke:none;stroke-width:1">
    <g
       id="Logo"
       transform="translate(5,5)"
       onclick="window.parent.location='../home/index.html'"
       style="cursor:pointer;">
      <ellipse
         id="Oval"
         cx="278.94562"
         cy="232.519"
         rx="278.14264"
         ry="232.18417"
         style="stroke:#000000;stroke-width:9.9936676" />
      <path
         d="M 278.92921,4.8594242 V 65.140576"
         id="Line"
         inkscape:connector-curvature="0"
         style="stroke:#000000;stroke-width:9.85842228;stroke-linecap:square" />
      <path
         d="m 278.93342,399.6824 v 60.38418"
         id="Line-Copy-2"
         inkscape:connector-curvature="0"
         style="stroke:#000000;stroke-width:9.86683846;stroke-linecap:square" />
      <path
         d="M 239.9992,232.5 H 2.0388379"
         id="Line-Copy"
         inkscape:connector-curvature="0"
         style="stroke:#000000;stroke-width:10.07767582;stroke-linecap:square" />
      <path
         d="M 555.9825,232.441 H 318.01987"
         id="Line-Copy-3"
         inkscape:connector-curvature="0"
         style="stroke:#000000;stroke-width:10.07771969;stroke-linecap:square" />
      <g
         transform="scale(0.99188391,1.0081825)"
         style="font-style:normal;font-variant:normal;font-weight:bold;font-stretch:normal;font-size:93.13464355px;font-family:Courier;-inkscape-font-specification:'Courier Bold';fill:#000000"
         id="1">
        <path
           d="m 261.11926,209.70429 3.25972,7.2645 13.50452,-6.05375 v 41.81746 h -15.64662 v 7.63704 h 39.20969 v -7.63704 h -15.46036 v -51.876 h -5.02927 z"
           style="font-style:normal;font-variant:normal;font-weight:bold;font-stretch:normal;font-size:93.13464355px;font-family:Courier;-inkscape-font-specification:'Courier Bold'"
           id="path3370"
           inkscape:connector-curvature="0" />
      </g>
      <path
         d="m 0.61140407,230.88749 c 0,0 47.80399093,-160.867935 278.68311593,-160.867935 230.87915,0 278.68314,163.565965 278.68314,163.565965"
         id="Path-2"
         inkscape:connector-curvature="0"
         style="stroke:#000000;stroke-width:10.04226112" />
      <path
         d="m 0.71088124,234.1129 c 0,0 47.80395376,160.866 278.68292876,160.866 230.87898,0 278.68293,-163.564 278.68293,-163.564"
         id="Path-2-Copy"
         inkscape:connector-curvature="0"
         style="stroke:#000000;stroke-width:10.04220963" />
      <g
         transform="scale(1.0190779,0.98127926)"
         style="font-style:normal;font-variant:normal;font-weight:bold;font-stretch:normal;font-size:69.27266693px;font-family:Courier;-inkscape-font-specification:'Courier Bold';fill:#000000"
         id="World-War">
        <path
           d="m 88.315132,131.88746 v 5.68036 h 3.325088 l 4.15636,34.7056 h 5.47254 l 7.48145,-21.26671 h 0.13854 l 7.75854,21.26671 h 5.47254 l 4.50273,-34.7056 h 3.25581 v -5.68036 h -15.79417 v 5.68036 h 6.71945 l -2.49381,21.12816 h -0.13855 L 111.31366,140.408 h -4.15636 l -7.06581,18.28798 h -0.13855 l -2.35527,-21.12816 h 6.65018 v -5.68036 z"
           style="font-style:normal;font-variant:normal;font-weight:bold;font-stretch:normal;font-size:69.27266693px;font-family:Courier;-inkscape-font-specification:'Courier Bold'"
           id="path3373"
           inkscape:connector-curvature="0" />
        <path
           d="m 132.69185,156.34071 c 0,8.65908 6.23454,16.90253 17.94162,16.90253 12.05345,0 17.94162,-8.58981 17.94162,-16.90253 0,-8.72836 -6.30381,-16.90253 -17.94162,-16.90253 -11.22217,0 -17.94162,7.75854 -17.94162,16.90253 z m 6.37309,0 c 0,-5.68036 3.94854,-10.94508 11.56853,-10.94508 7.82781,0 11.56854,5.54181 11.56854,10.94508 0,5.40327 -3.74073,10.94508 -11.56854,10.94508 -7.61999,0 -11.56853,-5.334 -11.56853,-10.94508 z"
           style="font-style:normal;font-variant:normal;font-weight:bold;font-stretch:normal;font-size:69.27266693px;font-family:Courier;-inkscape-font-specification:'Courier Bold'"
           id="path3375"
           inkscape:connector-curvature="0" />
        <path
           d="m 176.30657,140.8929 v 5.68036 h 7.68927 v 20.0198 h -8.31272 v 5.68036 H 202.838 v -5.68036 h -12.81544 v -12.95399 c 0.55418,-0.55418 6.858,-7.75853 11.36072,-7.75853 2.35527,0 3.67145,1.66254 4.43345,2.97872 l 6.16527,-4.71054 c -1.524,-1.524 -4.15636,-4.22563 -9.42109,-4.22563 -5.95745,0 -9.6289,3.32508 -12.53835,6.09599 v -5.12618 z"
           style="font-style:normal;font-variant:normal;font-weight:bold;font-stretch:normal;font-size:69.27266693px;font-family:Courier;-inkscape-font-specification:'Courier Bold'"
           id="path3377"
           inkscape:connector-curvature="0" />
        <path
           d="m 219.29784,128.56237 0.55418,5.74963 10.80653,-0.69273 v 32.97379 h -11.6378 v 5.68036 h 29.30233 v -5.68036 h -11.6378 v -39.20833 z"
           style="font-style:normal;font-variant:normal;font-weight:bold;font-stretch:normal;font-size:69.27266693px;font-family:Courier;-inkscape-font-specification:'Courier Bold'"
           id="path3379"
           inkscape:connector-curvature="0" />
        <path
           d="m 273.23419,128.83946 -0.62346,5.88818 11.1529,-0.83128 v 10.32163 c -2.97872,-2.35527 -6.85799,-3.60218 -10.25235,-3.60218 -8.03563,0 -16.00199,6.44236 -16.00199,16.14053 0,8.65909 6.99654,16.20981 16.14053,16.20981 1.93964,0 6.30382,-0.34636 10.11381,-3.60218 v 2.90945 h 11.63781 v -5.68036 h -5.61108 v -39.20833 z m 10.3909,27.98616 c 0,5.95745 -4.71054,10.18308 -9.90599,10.18308 -5.334,0 -9.83672,-4.29491 -9.83672,-10.32163 0,-6.16527 4.64127,-10.11381 9.83672,-10.11381 6.65017,0 9.90599,5.74963 9.90599,10.25236 z"
           style="font-style:normal;font-variant:normal;font-weight:bold;font-stretch:normal;font-size:69.27266693px;font-family:Courier;-inkscape-font-specification:'Courier Bold'"
           id="path3381"
           inkscape:connector-curvature="0" />
        <path
           d="m 337.53437,131.88746 v 5.68036 h 3.32509 l 4.15636,34.7056 h 5.47254 l 7.48145,-21.26671 h 0.13854 l 7.75854,21.26671 h 5.47254 l 4.50273,-34.7056 h 3.25581 v -5.68036 H 363.3038 v 5.68036 h 6.71945 l -2.49381,21.12816 h -0.13855 L 360.5329,140.408 h -4.15636 l -7.06582,18.28798 h -0.13854 l -2.35527,-21.12816 h 6.65017 v -5.68036 z"
           style="font-style:normal;font-variant:normal;font-weight:bold;font-stretch:normal;font-size:69.27266693px;font-family:Courier;-inkscape-font-specification:'Courier Bold'"
           id="path3383"
           inkscape:connector-curvature="0" />
        <path
           d="m 411.97545,151.00671 c 0,-7.13508 -3.87927,-11.56853 -12.74617,-11.56853 -5.61109,0 -10.32163,1.87036 -14.54726,3.60218 l 2.35527,5.54181 c 2.56309,-1.10836 7.27363,-3.18654 12.12271,-3.18654 6.858,0 6.78873,3.74072 6.78873,6.16526 -2.49382,-0.27709 -4.77982,-0.55418 -7.89709,-0.55418 -12.19199,0 -15.65562,7.20436 -15.65562,11.42999 0,5.40327 4.77981,10.80654 12.12272,10.80654 5.54181,0 9.14399,-2.63236 11.42999,-4.29491 v 3.32509 h 11.98417 v -5.68036 h -5.95745 z m -6.02672,10.04454 c -5.334,5.95745 -10.11381,6.23454 -11.49927,6.23454 -2.97872,0 -5.8189,-2.21673 -5.8189,-4.77981 0,-0.83128 0.34636,-5.81891 10.11381,-5.81891 2.70163,0 4.77981,0.41564 7.20436,0.762 z"
           style="font-style:normal;font-variant:normal;font-weight:bold;font-stretch:normal;font-size:69.27266693px;font-family:Courier;-inkscape-font-specification:'Courier Bold'"
           id="path3385"
           inkscape:connector-curvature="0" />
        <path
           d="m 425.52582,140.8929 v 5.68036 h 7.68927 v 20.0198 h -8.31272 v 5.68036 h 27.15488 v -5.68036 h -12.81544 v -12.95399 c 0.55418,-0.55418 6.85799,-7.75853 11.36071,-7.75853 2.35528,0 3.67146,1.66254 4.43346,2.97872 l 6.16526,-4.71054 c -1.524,-1.524 -4.15636,-4.22563 -9.42108,-4.22563 -5.95745,0 -9.6289,3.32508 -12.53835,6.09599 v -5.12618 z"
           style="font-style:normal;font-variant:normal;font-weight:bold;font-stretch:normal;font-size:69.27266693px;font-family:Courier;-inkscape-font-specification:'Courier Bold'"
           id="path3387"
           inkscape:connector-curvature="0" />
      </g>
      <g
         transform="scale(0.96528637,1.035962)"
         style="font-style:normal;font-variant:normal;font-weight:bold;font-stretch:normal;font-size:72.51734161px;font-family:Courier;-inkscape-font-specification:'Courier Bold';fill:#000000"
         id="UNRAVELD">
        <path
           d="m 95.308501,288.62061 v 5.94643 h 5.003699 v 18.49192 c 0,3.04573 0,9.06467 2.61062,12.90808 3.19077,4.71363 8.91964,6.09146 13.05312,6.09146 6.59908,0 9.78984,-1.30531 13.05313,-6.09146 2.75565,-3.98845 2.61062,-9.86235 2.61062,-12.90808 v -18.49192 h 5.0037 v -5.94643 h -18.41941 v 5.94643 h 7.1067 v 18.49192 c 0,6.16397 -0.21755,12.76305 -9.35474,12.76305 -9.13718,0 -9.35473,-6.59908 -9.35473,-12.76305 v -18.49192 h 7.1067 v -5.94643 z"
           style="font-style:normal;font-variant:normal;font-weight:bold;font-stretch:normal;font-size:72.51734161px;font-family:Courier;-inkscape-font-specification:'Courier Bold'"
           id="path3351"
           inkscape:connector-curvature="0" />
        <path
           d="m 138.06541,288.62061 v 5.94643 h 5.65635 v 30.38476 h -5.65635 v 5.94642 h 18.78199 v -5.94642 h -7.32425 v -25.091 h 1.30531 l 17.33164,31.90763 h 7.75936 v -37.20139 h 4.85866 v -5.94643 h -17.91178 v 5.94643 h 7.25173 v 25.45358 h -1.23279 l -16.96906,-31.40001 z"
           style="font-style:normal;font-variant:normal;font-weight:bold;font-stretch:normal;font-size:72.51734161px;font-family:Courier;-inkscape-font-specification:'Courier Bold'"
           id="path3353"
           inkscape:connector-curvature="0" />
        <path
           d="m 183.72301,288.62061 v 5.94643 h 5.65635 v 30.38476 h -5.65635 v 5.94642 h 18.27437 v -5.94642 h -6.30901 v -12.11039 h 3.69838 c 2.32056,0 3.19076,0.8702 6.23649,5.4388 0.14504,0.21755 4.20601,6.45404 7.03418,12.61801 h 11.16768 v -5.94642 h -6.81663 c -4.93118,-8.33949 -6.38153,-10.4425 -8.12195,-12.83557 9.28222,-2.75566 9.35474,-10.15243 9.35474,-11.60277 0,-3.84342 -1.95797,-7.75936 -4.78614,-9.71733 -2.9007,-2.03048 -5.87391,-2.17552 -10.36998,-2.17552 z m 19.36213,5.94643 c 5.22124,0 8.48452,0.94272 8.48452,5.72887 0,7.03418 -8.04942,6.59907 -10.51501,6.59907 h -5.36628 v -12.32794 z"
           style="font-style:normal;font-variant:normal;font-weight:bold;font-stretch:normal;font-size:72.51734161px;font-family:Courier;-inkscape-font-specification:'Courier Bold'"
           id="path3355"
           inkscape:connector-curvature="0" />
        <path
           d="m 231.9187,288.62061 v 5.94643 h 9.35474 l -12.40046,30.38476 h -4.20601 v 5.94642 h 17.18661 v -5.94642 h -6.45404 l 2.82817,-7.1067 h 16.3164 l 2.82818,7.1067 h -6.38153 v 5.94642 h 17.18661 v -5.94642 h -4.06097 l -14.72102,-36.33119 z m 20.30486,23.27807 H 240.6933 l 5.72887,-13.85081 z"
           style="font-style:normal;font-variant:normal;font-weight:bold;font-stretch:normal;font-size:72.51734161px;font-family:Courier;-inkscape-font-specification:'Courier Bold'"
           id="path3357"
           inkscape:connector-curvature="0" />
        <path
           d="M 290.12181,321.90607 280.0419,294.56704 h 5.94642 v -5.94643 h -17.83926 v 5.94643 h 5.22124 l 13.56075,36.33118 h 6.23649 l 13.70578,-36.33118 h 4.78614 v -5.94643 h -17.76675 v 5.94643 h 6.52656 z"
           style="font-style:normal;font-variant:normal;font-weight:bold;font-stretch:normal;font-size:72.51734161px;font-family:Courier;-inkscape-font-specification:'Courier Bold'"
           id="path3359"
           inkscape:connector-curvature="0" />
        <path
           d="m 314.89442,288.62061 v 5.94643 h 6.01894 v 30.38476 h -6.01894 v 5.94642 h 36.83881 v -15.73626 h -6.01894 l -0.36258,9.78984 h -18.12934 v -13.34319 h 8.55705 v 5.14873 h 6.01894 v -16.3164 h -6.01894 v 5.22125 h -8.55705 v -11.09515 h 17.47668 l 0.65266,9.71732 h 6.01893 l -0.36258,-15.66375 z"
           style="font-style:normal;font-variant:normal;font-weight:bold;font-stretch:normal;font-size:72.51734161px;font-family:Courier;-inkscape-font-specification:'Courier Bold'"
           id="path3361"
           inkscape:connector-curvature="0" />
        <path
           d="m 358.59403,288.62061 v 5.94643 h 6.96166 v 30.38476 h -6.96166 v 5.94642 h 36.54874 l 0.94273,-20.30485 h -6.16398 l -0.94272,14.35843 h -17.1141 v -30.38476 h 8.70208 v -5.94643 z"
           style="font-style:normal;font-variant:normal;font-weight:bold;font-stretch:normal;font-size:72.51734161px;font-family:Courier;-inkscape-font-specification:'Courier Bold'"
           id="path3363"
           inkscape:connector-curvature="0" />
        <path
           d="m 401.85856,288.62061 v 5.94643 h 6.01894 v 30.38476 h -6.01894 v 5.94642 h 36.83881 v -15.73626 h -6.01894 l -0.36258,9.78984 h -18.12934 v -13.34319 h 8.55705 v 5.14873 h 6.01894 v -16.3164 h -6.01894 v 5.22125 h -8.55705 v -11.09515 h 17.47668 l 0.65266,9.71732 h 6.01894 l -0.36259,-15.66375 z"
           style="font-style:normal;font-variant:normal;font-weight:bold;font-stretch:normal;font-size:72.51734161px;font-family:Courier;-inkscape-font-specification:'Courier Bold'"
           id="path3365"
           inkscape:connector-curvature="0" />
        <path
           d="m 443.74527,288.62061 v 5.94643 h 5.58383 v 30.38476 h -5.58383 v 5.94642 h 18.70947 c 2.75566,0 9.49977,0.0725 14.14088,-4.42355 3.04573,-2.97321 6.16398,-8.48453 6.16398,-17.40417 0,-2.75565 -0.21755,-9.2097 -4.56859,-14.6485 -4.27853,-5.36628 -9.35474,-5.80139 -15.51872,-5.80139 z m 18.99954,5.94643 c 5.14873,0 7.97691,0.36258 10.51502,4.06097 1.6679,2.39307 2.82817,5.80138 2.82817,10.51501 0,6.09146 -1.74041,10.4425 -4.13349,12.83557 -2.97321,2.97321 -7.17921,2.97321 -9.49977,2.97321 h -6.81663 v -30.38476 z"
           style="font-style:normal;font-variant:normal;font-weight:bold;font-stretch:normal;font-size:72.51734161px;font-family:Courier;-inkscape-font-specification:'Courier Bold'"
           id="path3367"
           inkscape:connector-curvature="0" />
      </g>
      <ellipse
         id="Oval-2"
         cx="279"
         cy="232.5"
         rx="34.850105"
         ry="54.850105"
         style="stroke:#000000;stroke-width:10.29978943" />
      <rect
         style="opacity:1;fill:#000000;fill-opacity:1;stroke-width:0.80993056"
         id="rect4521"
         width="567"
         height="3"
         x="-5"
         y="467" />
      <rect
         style="opacity:1;fill:#000000;fill-opacity:1;fill-rule:evenodd;stroke:none;stroke-width:0.80993056"
         id="rect4521-0"
         width="567"
         height="3"
         x="-5"
         y="-4" />
      <rect
         style="opacity:1;fill:#000000;fill-opacity:1;fill-rule:evenodd;stroke:none;stroke-width:0.74053472"
         id="rect4521-1"
         width="3"
         height="474"
         x="-5"
         y="-4" />
      <rect
         style="opacity:1;fill:#000000;fill-opacity:1;fill-rule:evenodd;stroke:none;stroke-width:0.74053472"
         id="rect4521-1-7"
         width="3"
         height="474"
         x="560"
         y="-4" />
    </g>
  </g>
</svg>
